<svg width="248" height="39" viewBox="0 0 248 39" fill="none" xmlns="http://www.w3.org/2000/svg">
<path d="M0.20293 18.75V26.25C0.20293 28.23 0.62293 33.54 7.73293 33.54C14.1229 33.54 15.1129 29.25 15.2329 26.97C15.2629 26.52 14.9929 26.19 14.5729 26.1L11.1829 25.35C10.5829 25.2 10.1029 25.59 10.0129 26.22C9.83293 27.6 9.38293 28.38 7.73293 28.38C5.51293 28.38 5.36293 26.97 5.36293 24.66V20.34C5.36293 18.03 5.51293 16.62 7.73293 16.62C9.35293 16.62 9.89293 17.4 10.0429 18.72C10.1329 19.35 10.6129 19.77 11.2429 19.65L14.5729 18.9C14.9929 18.81 15.2629 18.48 15.2329 18.06C15.1129 15.75 14.1229 11.46 7.73293 11.46C0.62293 11.46 0.20293 16.77 0.20293 18.75ZM18.19 12H21.55C22.12 12 22.45 12.33 22.45 12.9V20.4C22.45 20.97 22.78 21.3 23.35 21.3H26.23C26.83 21.3 27.13 20.97 27.13 20.4V12.9C27.13 12.33 27.46 12 28.03 12H31.39C31.99 12 32.29 12.3 32.29 12.9V32.1C32.29 32.67 31.99 33 31.39 33H28.03C27.46 33 27.13 32.67 27.13 32.1V27.36C27.13 26.76 26.83 26.46 26.23 26.46H23.35C22.78 26.46 22.45 26.76 22.45 27.36V32.1C22.45 32.67 22.15 33 21.55 33H18.19C17.62 33 17.29 32.67 17.29 32.1V12.9C17.29 12.3 17.59 12 18.19 12ZM49.8283 19.26V31.98C49.8283 32.64 49.5283 33 48.9283 33H45.5683C44.9983 33 44.6683 32.7 44.6683 32.1V29.49C44.6683 28.89 44.3683 28.59 43.7683 28.59H41.1883C40.6183 28.59 40.2883 28.89 40.2883 29.49V32.1C40.2883 32.7 39.9883 33 39.3883 33H36.0283C35.4583 33 35.1283 32.64 35.1283 31.98V19.26C35.1283 15.48 35.7283 11.46 42.4783 11.46C49.2283 11.46 49.8283 15.48 49.8283 19.26ZM44.6683 22.5V19.26C44.6683 17.82 44.4583 17.1 42.4783 17.1C40.4983 17.1 40.2883 17.82 40.2883 19.26V22.53C40.2883 23.1 40.6183 23.43 41.1883 23.43H43.7683C44.3683 23.4 44.6683 23.1 44.6683 22.5ZM42.4783 38.4C43.4083 38.4 44.1883 37.62 44.1883 36.69C44.1883 35.76 43.4083 34.98 42.4783 34.98C41.5483 34.98 40.7683 35.76 40.7683 36.69C40.7683 37.62 41.5483 38.4 42.4783 38.4ZM53.5807 12H59.7907C60.3307 12 60.6307 12.3 60.7507 12.81L62.8807 21.54C62.9407 21.84 63.1807 21.84 63.2407 21.54L65.3707 12.81C65.4907 12.3 65.7907 12 66.3307 12H72.5407C73.1407 12 73.4407 12.3 73.4407 12.9V32.1C73.4407 32.67 73.1407 33 72.5407 33H69.1807C68.6107 33 68.2807 32.67 68.2807 32.1V20.28C68.2807 20.07 68.0107 20.04 67.9507 20.25L65.0407 32.22C64.9207 32.73 64.5907 33 64.0507 33H62.0707C61.5307 33 61.2007 32.73 61.0807 32.22L58.1707 20.25C58.1107 20.04 57.8407 20.07 57.8407 20.28V32.1C57.8407 32.67 57.5407 33 56.9407 33H53.5807C52.9807 33 52.6807 32.67 52.6807 32.1V12.9C52.6807 12.3 52.9807 12 53.5807 12ZM93.0246 12H86.3346C85.7346 12.03 85.4346 12.33 85.4346 12.93V21.27H83.1246C82.7646 21.27 82.5846 21.45 82.5846 21.81V23.91C82.5846 24.27 82.7646 24.45 83.1246 24.45H85.4346V32.1C85.4346 32.67 85.7646 33 86.3346 33H93.0246C98.6646 33 100.525 30.69 100.525 25.77V19.2C100.525 14.28 98.6646 12 93.0246 12ZM95.2746 25.8C95.2746 27.6 94.5546 27.84 93.1146 27.84H91.4946C90.9246 27.84 90.5946 27.51 90.5946 26.94V18.06C90.5946 17.46 90.9246 17.16 91.4946 17.16H93.1146C94.5546 17.16 95.2746 17.34 95.2746 19.2V25.8ZM115.698 1.32C115.788 0.959998 115.998 0.839999 116.328 0.989999C119.988 2.43 116.358 6.93 118.158 7.74C118.338 7.86 118.458 8.13 118.398 8.37L118.158 9.42C118.068 9.75 117.858 9.9 117.528 9.78C113.868 8.34 117.468 3.81 115.728 3.03C115.518 2.94 115.338 2.64 115.458 2.37L115.698 1.32ZM114.138 8.79C113.208 7.92 112.338 7.41 109.938 7.41C108.288 7.41 107.208 7.56 106.038 8.73C105.678 9.09 105.678 9.45 106.038 9.84L106.728 10.5C107.058 10.83 107.448 10.83 107.748 10.5C108.258 10.23 108.318 9.84 110.028 9.84C111.858 9.84 111.978 10.14 112.398 10.56C112.758 10.92 113.118 10.89 113.448 10.56L114.138 9.87C114.498 9.48 114.498 9.15 114.138 8.79ZM104.118 12H116.718C117.318 12 117.618 12.3 117.618 12.9V16.26C117.618 16.83 117.318 17.16 116.718 17.16H109.458C108.888 17.16 108.558 17.46 108.558 18.06V19.02C108.558 19.59 108.888 19.92 109.458 19.92H114.108C114.708 19.92 115.008 20.22 115.008 20.82V24.18C115.008 24.75 114.708 25.08 114.108 25.08H109.458C108.888 25.08 108.558 25.38 108.558 25.98V26.94C108.558 27.51 108.888 27.84 109.458 27.84H116.718C117.318 27.84 117.618 28.14 117.618 28.74V32.1C117.618 32.7 117.318 33 116.718 33H104.118C103.548 33 103.218 32.67 103.218 32.1V12.9C103.218 12.3 103.548 12 104.118 12ZM128.611 18.75V26.25C128.611 28.23 129.031 33.54 136.141 33.54C143.251 33.54 143.671 28.23 143.671 26.25V22.2C143.671 21.6 143.371 21.3 142.771 21.3H136.771C136.201 21.3 135.871 21.6 135.871 22.2V24.6C135.871 25.17 136.201 25.5 136.771 25.5H138.511C138.511 26.97 138.361 28.38 136.141 28.38C133.921 28.38 133.771 26.97 133.771 24.66V20.34C133.771 18.03 133.921 16.62 136.141 16.62C137.851 16.62 138.361 17.46 138.481 18.9C138.541 19.53 138.871 19.8 139.471 19.68L142.861 18.93C143.401 18.81 143.671 18.48 143.641 17.94C143.491 15.6 142.441 11.46 136.141 11.46C129.031 11.46 128.611 16.77 128.611 18.75ZM147.213 12H150.513C151.113 12 151.413 12.3 151.413 12.9V32.1C151.413 32.67 151.113 33 150.513 33H147.213C146.643 33 146.313 32.67 146.313 32.1V12.9C146.313 12.3 146.643 12 147.213 12ZM155.299 12H167.899C168.499 12 168.799 12.3 168.799 12.9V16.26C168.799 16.83 168.499 17.16 167.899 17.16H160.639C160.069 17.16 159.739 17.46 159.739 18.06V19.02C159.739 19.59 160.069 19.92 160.639 19.92H165.289C165.889 19.92 166.189 20.22 166.189 20.82V24.18C166.189 24.75 165.889 25.08 165.289 25.08H160.639C160.069 25.08 159.739 25.38 159.739 25.98V26.94C159.739 27.51 160.069 27.84 160.639 27.84H167.899C168.499 27.84 168.799 28.14 168.799 28.74V32.1C168.799 32.7 168.499 33 167.899 33H155.299C154.729 33 154.399 32.67 154.399 32.1V12.9C154.399 12.3 154.729 12 155.299 12ZM185.859 26.25V18.75C185.859 16.77 185.439 11.46 178.329 11.46C171.219 11.46 170.799 16.77 170.799 18.75V26.25C170.799 28.23 171.219 33.54 178.329 33.54C185.439 33.54 185.859 28.23 185.859 26.25ZM180.699 20.34V24.66C180.699 26.97 180.549 28.38 178.329 28.38C176.109 28.38 175.959 26.97 175.959 24.66V20.34C175.959 18.03 176.109 16.62 178.329 16.62C180.549 16.62 180.699 18.03 180.699 20.34ZM210.934 34.26L213.364 31.95C213.784 31.53 213.814 31.08 213.424 30.66L212.074 29.22C211.984 29.1 211.954 28.98 211.984 28.8C212.254 27.81 212.314 26.85 212.314 26.25V18.75C212.314 16.77 211.894 11.46 204.784 11.46C197.674 11.46 197.254 16.77 197.254 18.75V26.25C197.254 28.23 197.674 33.54 204.784 33.54C206.104 33.54 207.214 33.36 208.114 33.03C208.294 32.97 208.414 33 208.534 33.12L209.674 34.26C210.094 34.68 210.514 34.68 210.934 34.26ZM202.414 24.66V20.34C202.414 18.03 202.564 16.62 204.784 16.62C207.004 16.62 207.154 18.03 207.154 20.34V24.66C207.154 26.97 207.004 28.38 204.784 28.38C202.564 28.38 202.414 26.97 202.414 24.66ZM219.183 12H215.823C215.253 12 214.923 12.3 214.923 12.9V26.25C214.923 28.23 215.343 33.54 222.453 33.54C229.563 33.54 229.983 28.23 229.983 26.25V12.9C229.983 12.3 229.683 12 229.083 12H225.723C225.153 12 224.823 12.3 224.823 12.9V24.66C224.823 26.97 224.673 28.38 222.453 28.38C220.233 28.38 220.083 26.97 220.083 24.66V12.9C220.083 12.3 219.783 12 219.183 12ZM238.348 1.68C238.438 1.32 238.648 1.2 238.978 1.35C242.638 2.79 239.008 7.29 240.808 8.1C240.988 8.22 241.108 8.49 241.048 8.73L240.808 9.78C240.718 10.11 240.508 10.26 240.178 10.14C236.518 8.7 240.118 4.17 238.378 3.39C238.168 3.3 237.988 3 238.108 2.73L238.348 1.68ZM233.698 12H246.298C246.898 12 247.198 12.3 247.198 12.9V16.26C247.198 16.83 246.898 17.16 246.298 17.16H239.038C238.468 17.16 238.138 17.46 238.138 18.06V19.02C238.138 19.59 238.468 19.92 239.038 19.92H243.688C244.288 19.92 244.588 20.22 244.588 20.82V24.18C244.588 24.75 244.288 25.08 243.688 25.08H239.038C238.468 25.08 238.138 25.38 238.138 25.98V26.94C238.138 27.51 238.468 27.84 239.038 27.84H246.298C246.898 27.84 247.198 28.14 247.198 28.74V32.1C247.198 32.7 246.898 33 246.298 33H233.698C233.128 33 232.798 32.67 232.798 32.1V12.9C232.798 12.3 233.128 12 233.698 12Z" fill="#900404"/>
</svg>
