<svg width="412" height="63" viewBox="0 0 412 63" fill="none" xmlns="http://www.w3.org/2000/svg">
<path d="M0.00488295 30.25V42.75C0.00488295 46.05 0.704883 54.9 12.5549 54.9C23.2049 54.9 24.8549 47.75 25.0549 43.95C25.1049 43.2 24.6549 42.65 23.9549 42.5L18.3049 41.25C17.3049 41 16.5049 41.65 16.3549 42.7C16.0549 45 15.3049 46.3 12.5549 46.3C8.85488 46.3 8.60488 43.95 8.60488 40.1V32.9C8.60488 29.05 8.85488 26.7 12.5549 26.7C15.2549 26.7 16.1549 28 16.4049 30.2C16.5549 31.25 17.3549 31.95 18.4049 31.75L23.9549 30.5C24.6549 30.35 25.1049 29.8 25.0549 29.1C24.8549 25.25 23.2049 18.1 12.5549 18.1C0.704883 18.1 0.00488295 26.95 0.00488295 30.25ZM29.9834 19H35.5834C36.5334 19 37.0834 19.55 37.0834 20.5V33C37.0834 33.95 37.6334 34.5 38.5834 34.5H43.3834C44.3834 34.5 44.8834 33.95 44.8834 33V20.5C44.8834 19.55 45.4334 19 46.3834 19H51.9834C52.9834 19 53.4834 19.5 53.4834 20.5V52.5C53.4834 53.45 52.9834 54 51.9834 54H46.3834C45.4334 54 44.8834 53.45 44.8834 52.5V44.6C44.8834 43.6 44.3834 43.1 43.3834 43.1H38.5834C37.6334 43.1 37.0834 43.6 37.0834 44.6V52.5C37.0834 53.45 36.5834 54 35.5834 54H29.9834C29.0334 54 28.4834 53.45 28.4834 52.5V20.5C28.4834 19.5 28.9834 19 29.9834 19ZM82.7139 31.1V52.3C82.7139 53.4 82.2139 54 81.2139 54H75.6139C74.6639 54 74.1139 53.5 74.1139 52.5V48.15C74.1139 47.15 73.6139 46.65 72.6139 46.65H68.3139C67.3639 46.65 66.8139 47.15 66.8139 48.15V52.5C66.8139 53.5 66.3139 54 65.3139 54H59.7139C58.7639 54 58.2139 53.4 58.2139 52.3V31.1C58.2139 24.8 59.2139 18.1 70.4639 18.1C81.7139 18.1 82.7139 24.8 82.7139 31.1ZM74.1139 36.5V31.1C74.1139 28.7 73.7639 27.5 70.4639 27.5C67.1639 27.5 66.8139 28.7 66.8139 31.1V36.55C66.8139 37.5 67.3639 38.05 68.3139 38.05H72.6139C73.6139 38 74.1139 37.5 74.1139 36.5ZM70.4639 63C72.0139 63 73.3139 61.7 73.3139 60.15C73.3139 58.6 72.0139 57.3 70.4639 57.3C68.9139 57.3 67.6139 58.6 67.6139 60.15C67.6139 61.7 68.9139 63 70.4639 63ZM88.9678 19H99.3178C100.218 19 100.718 19.5 100.918 20.35L104.468 34.9C104.568 35.4 104.968 35.4 105.068 34.9L108.618 20.35C108.818 19.5 109.318 19 110.218 19H120.568C121.568 19 122.068 19.5 122.068 20.5V52.5C122.068 53.45 121.568 54 120.568 54H114.968C114.018 54 113.468 53.45 113.468 52.5V32.8C113.468 32.45 113.018 32.4 112.918 32.75L108.068 52.7C107.868 53.55 107.318 54 106.418 54H103.118C102.218 54 101.668 53.55 101.468 52.7L96.6178 32.75C96.5178 32.4 96.0678 32.45 96.0678 32.8V52.5C96.0678 53.45 95.5678 54 94.5678 54H88.9678C87.9678 54 87.4678 53.45 87.4678 52.5V20.5C87.4678 19.5 87.9678 19 88.9678 19ZM154.708 19H143.558C142.558 19.05 142.058 19.55 142.058 20.55V34.45H138.208C137.608 34.45 137.308 34.75 137.308 35.35V38.85C137.308 39.45 137.608 39.75 138.208 39.75H142.058V52.5C142.058 53.45 142.608 54 143.558 54H154.708C164.108 54 167.208 50.15 167.208 41.95V31C167.208 22.8 164.108 19 154.708 19ZM158.458 42C158.458 45 157.258 45.4 154.858 45.4H152.158C151.208 45.4 150.658 44.85 150.658 43.9V29.1C150.658 28.1 151.208 27.6 152.158 27.6H154.858C157.258 27.6 158.458 27.9 158.458 31V42ZM192.496 1.2C192.646 0.599996 192.996 0.399999 193.546 0.649998C199.646 3.05 193.596 10.55 196.596 11.9C196.896 12.1 197.096 12.55 196.996 12.95L196.596 14.7C196.446 15.25 196.096 15.5 195.546 15.3C189.446 12.9 195.446 5.35 192.546 4.05C192.196 3.9 191.896 3.4 192.096 2.95L192.496 1.2ZM189.896 13.65C188.346 12.2 186.896 11.35 182.896 11.35C180.146 11.35 178.346 11.6 176.396 13.55C175.796 14.15 175.796 14.75 176.396 15.4L177.546 16.5C178.096 17.05 178.746 17.05 179.246 16.5C180.096 16.05 180.196 15.4 183.046 15.4C186.096 15.4 186.296 15.9 186.996 16.6C187.596 17.2 188.196 17.15 188.746 16.6L189.896 15.45C190.496 14.8 190.496 14.25 189.896 13.65ZM173.196 19H194.196C195.196 19 195.696 19.5 195.696 20.5V26.1C195.696 27.05 195.196 27.6 194.196 27.6H182.096C181.146 27.6 180.596 28.1 180.596 29.1V30.7C180.596 31.65 181.146 32.2 182.096 32.2H189.846C190.846 32.2 191.346 32.7 191.346 33.7V39.3C191.346 40.25 190.846 40.8 189.846 40.8H182.096C181.146 40.8 180.596 41.3 180.596 42.3V43.9C180.596 44.85 181.146 45.4 182.096 45.4H194.196C195.196 45.4 195.696 45.9 195.696 46.9V52.5C195.696 53.5 195.196 54 194.196 54H173.196C172.246 54 171.696 53.45 171.696 52.5V20.5C171.696 19.5 172.246 19 173.196 19ZM214.019 30.25V42.75C214.019 46.05 214.719 54.9 226.569 54.9C238.419 54.9 239.119 46.05 239.119 42.75V36C239.119 35 238.619 34.5 237.619 34.5H227.619C226.669 34.5 226.119 35 226.119 36V40C226.119 40.95 226.669 41.5 227.619 41.5H230.519C230.519 43.95 230.269 46.3 226.569 46.3C222.869 46.3 222.619 43.95 222.619 40.1V32.9C222.619 29.05 222.869 26.7 226.569 26.7C229.419 26.7 230.269 28.1 230.469 30.5C230.569 31.55 231.119 32 232.119 31.8L237.769 30.55C238.669 30.35 239.119 29.8 239.069 28.9C238.819 25 237.069 18.1 226.569 18.1C214.719 18.1 214.019 26.95 214.019 30.25ZM245.022 19H250.522C251.522 19 252.022 19.5 252.022 20.5V52.5C252.022 53.45 251.522 54 250.522 54H245.022C244.072 54 243.522 53.45 243.522 52.5V20.5C243.522 19.5 244.072 19 245.022 19ZM258.499 19H279.499C280.499 19 280.999 19.5 280.999 20.5V26.1C280.999 27.05 280.499 27.6 279.499 27.6H267.399C266.449 27.6 265.899 28.1 265.899 29.1V30.7C265.899 31.65 266.449 32.2 267.399 32.2H275.149C276.149 32.2 276.649 32.7 276.649 33.7V39.3C276.649 40.25 276.149 40.8 275.149 40.8H267.399C266.449 40.8 265.899 41.3 265.899 42.3V43.9C265.899 44.85 266.449 45.4 267.399 45.4H279.499C280.499 45.4 280.999 45.9 280.999 46.9V52.5C280.999 53.5 280.499 54 279.499 54H258.499C257.549 54 256.999 53.45 256.999 52.5V20.5C256.999 19.5 257.549 19 258.499 19ZM309.431 42.75V30.25C309.431 26.95 308.731 18.1 296.881 18.1C285.031 18.1 284.331 26.95 284.331 30.25V42.75C284.331 46.05 285.031 54.9 296.881 54.9C308.731 54.9 309.431 46.05 309.431 42.75ZM300.831 32.9V40.1C300.831 43.95 300.581 46.3 296.881 46.3C293.181 46.3 292.931 43.95 292.931 40.1V32.9C292.931 29.05 293.181 26.7 296.881 26.7C300.581 26.7 300.831 29.05 300.831 32.9ZM351.223 56.1L355.273 52.25C355.973 51.55 356.023 50.8 355.373 50.1L353.123 47.7C352.973 47.5 352.923 47.3 352.973 47C353.423 45.35 353.523 43.75 353.523 42.75V30.25C353.523 26.95 352.823 18.1 340.973 18.1C329.123 18.1 328.423 26.95 328.423 30.25V42.75C328.423 46.05 329.123 54.9 340.973 54.9C343.173 54.9 345.023 54.6 346.523 54.05C346.823 53.95 347.023 54 347.223 54.2L349.123 56.1C349.823 56.8 350.523 56.8 351.223 56.1ZM337.023 40.1V32.9C337.023 29.05 337.273 26.7 340.973 26.7C344.673 26.7 344.923 29.05 344.923 32.9V40.1C344.923 43.95 344.673 46.3 340.973 46.3C337.273 46.3 337.023 43.95 337.023 40.1ZM364.971 19H359.371C358.421 19 357.871 19.5 357.871 20.5V42.75C357.871 46.05 358.571 54.9 370.421 54.9C382.271 54.9 382.971 46.05 382.971 42.75V20.5C382.971 19.5 382.471 19 381.471 19H375.871C374.921 19 374.371 19.5 374.371 20.5V40.1C374.371 43.95 374.121 46.3 370.421 46.3C366.721 46.3 366.471 43.95 366.471 40.1V20.5C366.471 19.5 365.971 19 364.971 19ZM396.913 1.8C397.063 1.2 397.413 0.999997 397.963 1.25C404.063 3.65 398.013 11.15 401.013 12.5C401.313 12.7 401.513 13.15 401.413 13.55L401.013 15.3C400.863 15.85 400.513 16.1 399.963 15.9C393.863 13.5 399.863 5.95 396.963 4.65C396.613 4.5 396.313 4 396.513 3.55L396.913 1.8ZM389.163 19H410.163C411.163 19 411.663 19.5 411.663 20.5V26.1C411.663 27.05 411.163 27.6 410.163 27.6H398.063C397.113 27.6 396.563 28.1 396.563 29.1V30.7C396.563 31.65 397.113 32.2 398.063 32.2H405.813C406.813 32.2 407.313 32.7 407.313 33.7V39.3C407.313 40.25 406.813 40.8 405.813 40.8H398.063C397.113 40.8 396.563 41.3 396.563 42.3V43.9C396.563 44.85 397.113 45.4 398.063 45.4H410.163C411.163 45.4 411.663 45.9 411.663 46.9V52.5C411.663 53.5 411.163 54 410.163 54H389.163C388.213 54 387.663 53.45 387.663 52.5V20.5C387.663 19.5 388.213 19 389.163 19Z" fill="#900404"/>
</svg>
